<?xml version="1.0" encoding="UTF-8"?>
<svg version="1.1" xmlns="http://www.w3.org/2000/svg" width="48" height="48">
<path d="M0 0 C15.84 0 31.68 0 48 0 C48 15.84 48 31.68 48 48 C32.16 48 16.32 48 0 48 C0 32.16 0 16.32 0 0 Z " fill="#000909" transform="translate(0,0)"/>
<path d="M0 0 C7.59 0 15.18 0 23 0 C23 15.84 23 31.68 23 48 C7.16 48 -8.68 48 -25 48 C-24.67 47.01 -24.34 46.02 -24 45 C-24 45.66 -24 46.32 -24 47 C-9.15 47 5.7 47 21 47 C11.49006253 26.73024326 11.49006253 26.73024326 1.27734375 6.80859375 C0 4 0 4 0 0 Z " fill="#000101" transform="translate(25,0)"/>
<path d="M0 0 C0.66 0 1.32 0 2 0 C2.50789063 1.08796875 3.01578125 2.1759375 3.5390625 3.296875 C4.23400735 4.78142216 4.92934737 6.26578437 5.625 7.75 C5.98529297 8.51900635 6.34558594 9.2880127 6.71679688 10.08032227 C9.36237993 15.70335686 12.11380121 21.2572699 14.96875 26.77734375 C16 29 16 29 16 31 C6.1 31 -3.8 31 -14 31 C-12.74505014 27.23515042 -11.6204249 23.97861138 -9.94140625 20.46875 C-9.55533203 19.65792969 -9.16925781 18.84710937 -8.77148438 18.01171875 C-8.37251953 17.18285156 -7.97355469 16.35398437 -7.5625 15.5 C-7.16740234 14.67113281 -6.77230469 13.84226562 -6.36523438 12.98828125 C-4.28630607 8.63671418 -2.17350862 4.3050846 0 0 Z " fill="#000707" transform="translate(23,11)"/>
<path d="M0 0 C3 1 3 1 4.76171875 4 C5.414282 5.32816014 6.05544663 6.66195789 6.6875 8 C7.03127686 8.70753418 7.37505371 9.41506836 7.72924805 10.14404297 C8.83198426 12.42361527 9.91802513 14.71050667 11 17 C11.54575684 18.15097168 11.54575684 18.15097168 12.10253906 19.32519531 C14.12826226 23.60292893 16.13759662 27.88794039 18.13134766 32.18066406 C18.95652763 33.90894994 19.84203912 35.60804762 20.73046875 37.3046875 C22 40 22 40 22 43 C7.81 43 -6.38 43 -21 43 C-15.41071429 29.58571429 -15.41071429 29.58571429 -12.1875 23.75 C-7.91996717 15.93342642 -3.94450421 7.98342474 0 0 Z M0 8 C-0.36967896 8.78479736 -0.36967896 8.78479736 -0.74682617 9.58544922 C-1.89251826 12.01586721 -3.03977279 14.44554239 -4.1875 16.875 C-4.59734131 17.74310303 -5.00718262 18.61120605 -5.42944336 19.50561523 C-7.94148293 24.8113488 -10.50594635 30.08041573 -13.22265625 35.28515625 C-14.13762162 36.9897967 -14.13762162 36.9897967 -14 39 C-4.1 39 5.8 39 16 39 C14.43825701 33.28646659 14.43825701 33.28646659 12.1953125 28.09765625 C11.85886719 27.43443359 11.52242187 26.77121094 11.17578125 26.08789062 C10.82902344 25.41951172 10.48226562 24.75113281 10.125 24.0625 C9.09765625 22.04882812 9.09765625 22.04882812 8.0703125 20.03515625 C7.73290039 19.37918457 7.39548828 18.72321289 7.04785156 18.04736328 C5.34014575 14.71073213 3.67175848 11.35476196 2 8 C1.34 8 0.68 8 0 8 Z " fill="#00E7E7" transform="translate(23,3)"/>
</svg>
